<svg viewBox="0 0 29.29 22" xmlns="http://www.w3.org/2000/svg"><g transform="translate(-150.43 -248.75)"><path d="m151 252.75h21.41.07l5.27-3.46a.11.11 0 0 1 .17.14l-1.27 3.17a.12.12 0 0 0 .11.17h2.3a.11.11 0 0 1 .11.13l-.62 3.52a.11.11 0 0 1 -.08.09l-8.81 2.68a.12.12 0 0 0 -.07.17l5.88 10.74a.11.11 0 0 1 -.1.17h-11.3a.11.11 0 0 1 -.11-.06l-7-13.48a.11.11 0 0 0 -.07-.06l-5.89-1.67a.12.12 0 0 1 -.08-.12v-2a.11.11 0 0 1 .08-.13z" fill="none" stroke="#000" stroke-miterlimit="10"/><path d="m162.29 262.87.41-2.11h-1.28v-.63h1.42l.3-1.56h-1.35v-.63h1.49l.4-2.06h.91l-.39 2.06h1.62l.41-2.06h.92l-.39 2.06h1.24v.63h-1.42l-.28 1.56h1.34v.63h-1.44l-.41 2.11h-.93l.4-2.11h-1.62l-.41 2.11zm3.11-2.74.3-1.56h-1.63l-.29 1.56z"/></g></svg>