<svg id="be35da11-0238-4f8c-ae33-a385d4db0809" data-name="Layer 1" xmlns="http://www.w3.org/2000/svg" viewBox="0 0 29.29 22">
  <defs>
    <style>
      .ee9fbf5a-bdec-4035-8dca-a79707b6624b {
        fill: none;
        stroke: #000;
        stroke-miterlimit: 10;
      }
    </style>
  </defs>
  <path class="ee9fbf5a-bdec-4035-8dca-a79707b6624b" d="M151,252.75h21.41l.07,0,5.27-3.46a.11.11,0,0,1,.17.14l-1.27,3.17a.12.12,0,0,0,.11.17h2.3a.11.11,0,0,1,.11.13l-.62,3.52a.11.11,0,0,1-.08.09l-8.81,2.68a.12.12,0,0,0-.07.17l5.88,10.74a.11.11,0,0,1-.1.17H164.07a.11.11,0,0,1-.11-.06l-7-13.48a.11.11,0,0,0-.07-.06L151,255a.12.12,0,0,1-.08-.12v-2A.11.11,0,0,1,151,252.75Z" transform="translate(-150.43 -248.75)"/>
  <path d="M162.29,262.87l.41-2.11h-1.28v-.63h1.42l.3-1.56h-1.35v-.63h1.49l.4-2.06h.91l-.39,2.06h1.62l.41-2.06h.92l-.39,2.06H168v.63h-1.42l-.28,1.56h1.34v.63H166.2l-.41,2.11h-.93l.4-2.11h-1.62l-.41,2.11Zm3.11-2.74.3-1.56h-1.63l-.29,1.56Z" transform="translate(-150.43 -248.75)"/>
</svg>
